<?xml version="1.0" standalone="no"?>
<!DOCTYPE svg PUBLIC "-//W3C//DTD SVG 20010904//EN"
 "http://www.w3.org/TR/2001/REC-SVG-20010904/DTD/svg10.dtd">
<svg version="1.0" xmlns="http://www.w3.org/2000/svg"
 width="800.000000pt" height="800.000000pt" viewBox="0 0 800.000000 800.000000"
 preserveAspectRatio="xMidYMid meet">

<g transform="translate(0.000000,800.000000) scale(0.100000,-0.100000)"
fill="#0077BE" stroke="none">
<path d="M3810 7100 c-133 -12 -343 -47 -420 -69 -36 -11 -108 -32 -160 -46
-304 -86 -633 -245 -896 -432 -257 -184 -513 -438 -702 -698 -126 -175 -280
-464 -357 -670 -144 -385 -202 -733 -192 -1140 17 -668 231 -1258 651 -1790
93 -118 335 -362 456 -459 222 -178 572 -378 822 -470 229 -84 472 -142 723
-172 197 -23 573 -16 770 15 465 74 926 261 1290 524 192 139 434 366 576 542
366 452 596 1006 654 1578 92 901 -222 1787 -859 2422 -469 468 -1065 762
-1721 850 -141 19 -500 27 -635 15z m2620 -2065 c8 -5 44 -9 80 -10 44 -1 74
-7 92 -19 63 -41 92 -138 103 -341 8 -155 22 -235 45 -260 30 -34 53 -136 48
-215 -13 -171 -157 -341 -326 -384 l-46 -12 -44 -145 c-134 -444 -364 -830
-685 -1147 -67 -67 -162 -154 -212 -193 -453 -364 -1013 -557 -1555 -536 -799
31 -1479 478 -1839 1210 -148 299 -216 557 -246 934 l-7 81 -36 7 c-166 31
-299 165 -320 325 -24 170 66 342 216 417 52 25 67 28 167 28 98 0 116 -3 165
-26 207 -98 287 -335 183 -543 -46 -91 -155 -177 -249 -196 l-54 -11 0 -63 c0
-34 7 -116 15 -181 109 -838 623 -1514 1360 -1790 379 -142 831 -165 1242 -64
493 121 948 411 1297 829 169 202 353 523 445 775 40 112 85 264 79 270 -2 2
-39 8 -83 14 -48 7 -105 23 -143 41 -111 52 -223 189 -206 254 3 15 2 32 -4
39 -6 6 -36 64 -67 127 -32 63 -67 130 -80 150 -12 19 -39 75 -60 124 -30 70
-38 101 -37 143 2 76 18 102 92 151 36 24 71 55 78 68 7 13 21 24 31 24 12 0
21 10 25 25 9 36 54 45 78 15 31 -39 24 -76 -24 -110 -22 -16 -50 -30 -61 -30
-26 0 -134 -66 -147 -90 -6 -10 -10 -34 -10 -53 0 -36 74 -217 109 -266 12
-16 39 -67 61 -113 71 -149 140 -272 173 -306 18 -18 61 -48 97 -65 59 -29 73
-32 155 -31 103 0 166 21 247 81 119 87 169 248 110 358 -9 16 -17 50 -17 75
-4 103 -26 369 -36 425 -14 76 -41 121 -82 134 -41 14 -134 7 -199 -15 -51
-17 -52 -17 -70 6 -22 28 -23 58 -1 82 13 14 28 17 77 15 34 -1 68 -7 76 -12z
m-1527 -108 c91 -29 171 -82 238 -156 63 -68 93 -131 84 -171 -12 -54 -107
-119 -178 -122 -53 -2 -73 10 -104 61 -106 171 -301 153 -397 -36 -27 -55 -56
-180 -56 -245 1 -105 46 -236 107 -308 32 -39 115 -80 161 -80 76 0 162 71
217 180 25 49 43 59 100 60 70 0 118 -16 156 -51 30 -28 31 -32 26 -85 -8 -82
-50 -157 -131 -239 -108 -109 -229 -152 -392 -142 -232 16 -412 160 -499 400
-49 135 -57 332 -20 472 93 346 401 553 688 462z m-1155 -27 c127 -44 221
-168 241 -316 5 -38 12 -231 16 -429 8 -403 2 -476 -39 -512 -50 -43 -219 -39
-260 6 -15 16 -18 70 -25 449 -9 400 -11 433 -30 476 -24 55 -51 69 -136 68
-103 0 -188 -54 -232 -147 l-24 -50 7 -335 c10 -481 7 -490 -153 -490 -104 0
-147 14 -156 52 -3 13 -7 280 -9 594 -3 550 -2 573 16 593 24 27 76 41 149 41
69 0 109 -18 129 -59 l15 -31 24 26 c82 88 309 119 467 64z m-45 -1579 c85 -2
117 -73 60 -133 -15 -15 -21 -28 -15 -28 25 0 52 -40 52 -75 0 -68 -57 -100
-170 -93 -55 3 -55 3 -54 36 0 17 1 92 2 166 l2 135 38 -4 c20 -1 58 -3 85 -4z
m339 -19 c24 -24 18 -52 -12 -52 -11 0 -20 4 -20 10 0 5 -9 14 -21 20 -45 25
-102 -18 -80 -59 6 -10 34 -30 63 -43 86 -41 111 -83 83 -141 -19 -40 -50 -57
-106 -57 -65 0 -109 31 -109 76 0 22 47 17 53 -6 10 -40 101 -38 116 3 12 32
-2 52 -56 78 -83 39 -110 75 -97 131 14 65 136 91 186 40z m423 -111 l70 -119
5 117 c5 111 6 116 28 119 l22 3 0 -165 c0 -91 -4 -167 -8 -170 -24 -15 -53
14 -117 120 -39 63 -71 111 -72 107 -1 -5 -5 -56 -8 -115 -6 -97 -9 -108 -26
-108 -18 0 -19 9 -19 165 l0 165 28 0 c24 -1 35 -14 97 -119z m-206 24 c26
-13 41 -33 41 -56 0 -17 -35 -9 -53 11 -49 58 -120 -19 -96 -104 13 -46 60
-65 89 -36 21 21 60 27 60 11 0 -6 -10 -22 -23 -37 -20 -22 -31 -26 -73 -26
-41 1 -53 6 -76 32 -24 25 -28 39 -28 86 0 109 73 164 159 119z"/>
<path d="M1768 4706 c-63 -22 -125 -64 -158 -106 -105 -132 -93 -323 27 -444
62 -63 133 -91 228 -91 71 0 88 4 147 33 118 58 182 162 182 292 0 61 -6 87
-28 135 -35 76 -108 147 -182 175 -63 23 -160 26 -216 6z m190 -145 c71 -37
102 -87 102 -168 0 -136 -130 -226 -254 -179 -56 21 -113 83 -122 131 -16 86
25 178 95 215 48 25 131 26 179 1z"/>
<path d="M3634 3281 c-2 -2 -4 -26 -4 -53 0 -44 2 -48 24 -48 60 0 95 34 81
79 -4 14 -17 20 -51 23 -25 2 -47 1 -50 -1z"/>
<path d="M3632 3088 c3 -52 4 -53 36 -56 19 -2 44 4 58 13 51 33 14 95 -57 95
l-40 0 3 -52z"/>
</g>
</svg>
